<svg xmlns="http://www.w3.org/2000/svg" version="1.1" xmlns:xlink="http://www.w3.org/1999/xlink"
    xmlns:svgjs="http://svgjs.dev/svgjs" width="2000" height="2000" viewBox="0 0 2000 2000">
    <g transform="matrix(1,0,0,1,0.6617647058825469,0.6617647058824332)">
        <svg viewBox="0 0 340 340" data-background-color="#ffffff"
            preserveAspectRatio="xMidYMid meet" height="2000" width="2000"
            xmlns="http://www.w3.org/2000/svg" xmlns:xlink="http://www.w3.org/1999/xlink">
            <g id="tight-bounds"
                transform="matrix(1,0,0,1,-0.11250000000003979,-0.11250000000001137)">
                <svg viewBox="0 0 340.2246253554401 340.2246253554401" height="340.2246253554401"
                    width="340.2246253554401">
                    <g>
                        <svg></svg>
                    </g>
                    <g>
                        <svg viewBox="0 0 340.2246253554401 340.2246253554401"
                            height="340.2246253554401" width="340.2246253554401">
                            <g>
                                <path
                                    d="M0 170.112c0-93.95 76.162-170.112 170.112-170.112 93.95 0 170.112 76.162 170.113 170.112 0 93.95-76.162 170.112-170.113 170.113-93.95 0-170.112-76.162-170.112-170.113zM170.112 325.182c85.643 0 155.07-69.427 155.07-155.07 0-85.643-69.427-155.07-155.07-155.069-85.643 0-155.07 69.427-155.069 155.069 0 85.643 69.427 155.07 155.069 155.07z"
                                    data-fill-palette-color="tertiary" fill="#d269fc" fill-opacity="0.5"
                                    stroke="transparent"></path>
                                <ellipse rx="163.30782017061122" ry="163.30782017061122"
                                    cx="170.11231267772004" cy="170.11231267772004" fill="#d269fc"
                                    stroke="transparent" stroke-width="0" fill-opacity=".5"
                                    data-fill-palette-color="tertiary"></ellipse>
                            </g>
                            <g transform="matrix(1,0,0,1,64.46185319053944,74.33309206414148)">
                                <svg viewBox="0 0 211.3009189743612 191.55844122715712"
                                    height="191.55844122715712" width="211.3009189743612">
                                    <g>
                                        <svg viewBox="0 0 211.3009189743612 191.55844122715712"
                                            height="191.55844122715712" width="211.3009189743612">
                                            <g>
                                                <svg
                                                    viewBox="0 0 211.3009189743612 191.55844122715712"
                                                    height="191.55844122715712"
                                                    width="211.3009189743612">
                                                    <g>
                                                        <svg
                                                            viewBox="0 0 211.3009189743612 191.55844122715712"
                                                            height="191.55844122715712"
                                                            width="211.3009189743612">
                                                            <g id="textblocktransform">
                                                                <svg
                                                                    viewBox="0 0 211.3009189743612 191.55844122715712"
                                                                    height="191.55844122715712"
                                                                    width="211.3009189743612"
                                                                    id="textblock">
                                                                    <g>
                                                                        <svg
                                                                            viewBox="0 0 211.3009189743612 191.55844122715712"
                                                                            height="191.55844122715712"
                                                                            width="211.3009189743612">
                                                                            <g
                                                                                transform="matrix(1,0,0,1,0,0)">
                                                                                <svg
                                                                                    width="211.3009189743612"
                                                                                    viewBox="-2.689999997615814 -43.93000030517578 52.209999084472656 47.43000030517578"
                                                                                    height="191.55844122715712"
                                                                                    data-palette-color="#ffffff">
                                                                                    <path
                                                                                        d="M27.15-11.87L19.73-11.87 20.43-13.62 26.44-13.62 27.15-11.87ZM28.56-8.35L18.36-8.35 19.04-10.11 27.81-10.11 28.56-8.35ZM29.93-4.83L16.99-4.83 17.68-6.59 29.2-6.59 29.93-4.83ZM17.75-38.06L2.71 0 0.81 0 16.8-40.43 18.7-40.43 34.67 0 32.79 0 17.75-38.06ZM4.59 0L17.97-33.89 18.97-31.64 6.47 0 4.59 0ZM8.37 0L19.92-29.25 20.85-26.83 10.28 0 8.37 0ZM12.16 0L21.78-24.41 22.71-21.95 14.04 0 12.16 0ZM30.03-40.43L46.02 0 44.12 0 28.15-40.43 30.03-40.43ZM24.37-40.43L26.25-40.43 42.24 0 40.36 0 24.37-40.43ZM20.58-40.43L22.46-40.43 38.45 0 36.55 0 20.58-40.43Z"
                                                                                        opacity="1"
                                                                                        transform="matrix(1,0,0,1,0,0)"
                                                                                        fill="#ffffff"
                                                                                        class="wordmark-text-0"
                                                                                        data-fill-palette-color="quaternary"
                                                                                        id="text-0"></path>
                                                                                </svg>
                                                                            </g>
                                                                        </svg>
                                                                    </g>
                                                                </svg>
                                                            </g>
                                                        </svg>
                                                    </g>
                                                </svg>
                                            </g>
                                        </svg>
                                    </g>
                                </svg>
                            </g>
                        </svg>
                    </g>
                    <defs></defs>
                </svg>
                <rect width="340.2246253554401" height="340.2246253554401" fill="none" stroke="none"
                    visibility="hidden"></rect>
            </g>
        </svg>
    </g>
</svg>